<?xml version="1.0" encoding="utf-8"?>
<!-- Generator: Adobe Illustrator 14.0.0, SVG Export Plug-In . SVG Version: 6.00 Build 43363)  -->
<!DOCTYPE svg PUBLIC "-//W3C//DTD SVG 1.1//EN" "http://www.w3.org/Graphics/SVG/1.1/DTD/svg11.dtd">
<svg version="1.1" id="Layer_1" xmlns="http://www.w3.org/2000/svg" xmlns:xlink="http://www.w3.org/1999/xlink" x="0px" y="0px"
	 width="900px" height="900px" viewBox="0 0 900 900" enable-background="new 0 0 900 900" xml:space="preserve">
<g>
	<path d="M875.778,52.91c2.764-24.844,19.309-45.648,14.395-47.281c-4.913-1.633-26.736,0.385-36.543,0.811
		c-9.809,0.426-33.471-0.815-37.875-0.811c-4.405,0.005-4.571,2.728-6.612,5.32c-2.041,2.594-6.695,2.28-6.695,2.28H97.554
		c0,0-4.654,0.313-6.695-2.28c-2.041-2.593-2.207-5.315-6.612-5.32C79.841,5.624,56.18,6.865,46.372,6.439S14.741,3.996,9.828,5.628
		C4.914,7.261,21.459,28.066,24.222,52.91v794.182c-2.763,24.843-19.308,45.647-14.395,47.281
		c4.913,1.633,26.736-0.386,36.544-0.811c9.808-0.427,33.47,0.815,37.875,0.811c4.405-0.005,4.571-2.729,6.612-5.322
		c2.041-2.593,6.695-2.281,6.695-2.281h704.893c0,0,4.654-0.312,6.695,2.281c2.041,2.594,2.207,5.317,6.612,5.322
		c4.404,0.005,28.066-1.237,37.875-0.811c9.807,0.425,31.63,2.443,36.543,0.811c4.914-1.634-11.631-22.438-14.395-47.281V52.91z
		 M857.842,98.472v707.651v32.858c0,0-2.561,34.292-13.001,33.575c-10.441-0.717-9.521-10.85-16.379-6.961
		c-6.857,3.891-14.022,10.134-22.724,10.237c-8.702,0.102-25.695,0-25.695,0l-657.04-2.468c0,0-16.992,0.103-25.693,0
		c-8.702-0.104-15.866-6.347-22.725-10.236c-6.859-3.891-5.938,6.243-16.379,6.96c-10.44,0.717-13-33.576-13-33.576v-32.857V98.472
		V65.614c0,0,2.559-34.292,13-33.576c10.441,0.717,9.52,10.852,16.379,6.961c6.858-3.89,14.023-10.134,22.725-10.236
		c8.701-0.102,25.693,0,25.693,0h657.04c0,0,16.993-0.102,25.695,0c8.701,0.103,15.866,6.347,22.724,10.236
		c6.858,3.891,5.938-6.244,16.379-6.961c10.44-0.716,13.001,33.576,13.001,33.576V98.472z"/>
	<path opacity="0" d="M844.841,32.038c-10.441,0.717-9.521,10.852-16.379,6.961c-6.857-3.89-14.022-10.134-22.724-10.236
		c-8.702-0.102-25.695,0-25.695,0h-657.04c0,0-16.992-0.102-25.693,0c-8.702,0.103-15.866,6.347-22.725,10.236
		c-6.859,3.891-5.938-6.244-16.379-6.961c-10.44-0.716-13,33.576-13,33.576v32.858v705.184v32.857c0,0,2.559,34.293,13,33.576
		c10.441-0.717,9.52-10.851,16.379-6.96c6.858,3.89,14.023,10.133,22.725,10.236c8.701,0.103,25.693,0,25.693,0l657.04,2.468
		c0,0,16.993,0.102,25.695,0c8.701-0.104,15.866-6.347,22.724-10.237c6.858-3.889,5.938,6.244,16.379,6.961
		c10.44,0.717,13.001-33.575,13.001-33.575v-32.858V98.472V65.614C857.842,65.614,855.282,31.322,844.841,32.038z M853.869,71.711
		v26.761v707.651v26.76c0,0-1.043,7.983-4.523,11.874c-3.479,3.891-5.732,1.126-8.291-0.613c-2.56-1.74-5.631-4.505-9.111,1.739
		s-1.638,7.78-7.779,12.591c-6.142,4.812-16.48,13.205-29.275,13.205c-12.797,0-14.845,0-14.845,0l-657.04-2.468
		c0,0-2.047,0-14.842,0s-23.134-8.394-29.276-13.206c-6.142-4.81-4.299-6.346-7.78-12.589c-3.48-6.246-6.551-3.48-9.11-1.74
		c-2.56,1.74-4.811,4.503-8.292,0.613c-3.481-3.89-4.523-11.874-4.523-11.874v-26.76V98.472V71.711c0,0,1.042-7.984,4.523-11.873
		c3.48-3.89,5.732-1.126,8.292,0.613c2.559,1.74,5.63,4.504,9.11-1.739c3.481-6.245,1.638-7.78,7.78-12.592
		c6.142-4.811,16.48-13.204,29.276-13.204s14.842,0,14.842,0h657.04c0,0,2.048,0,14.845,0c12.795,0,23.134,8.394,29.275,13.204
		c6.142,4.812,4.299,6.347,7.779,12.592c3.48,6.243,6.552,3.479,9.111,1.739c2.559-1.739,4.812-4.503,8.291-0.613
		C852.826,63.727,853.869,71.711,853.869,71.711z"/>
	<path d="M841.054,60.452c-2.56,1.74-5.631,4.504-9.111-1.739c-3.48-6.245-1.638-7.78-7.779-12.592
		c-6.142-4.811-16.48-13.204-29.275-13.204c-12.797,0-14.845,0-14.845,0h-657.04c0,0-2.047,0-14.842,0S85.027,41.31,78.885,46.121
		c-6.142,4.812-4.299,6.347-7.78,12.592c-3.48,6.243-6.551,3.479-9.11,1.739c-2.56-1.739-4.811-4.503-8.292-0.613
		c-3.481,3.889-4.523,11.873-4.523,11.873v26.761v705.184v26.76c0,0,1.042,7.984,4.523,11.874c3.48,3.89,5.732,1.127,8.292-0.613
		c2.559-1.74,5.63-4.506,9.11,1.74c3.481,6.243,1.638,7.779,7.78,12.589c6.142,4.813,16.48,13.206,29.276,13.206s14.842,0,14.842,0
		l657.04,2.468c0,0,2.048,0,14.845,0c12.795,0,23.134-8.394,29.275-13.205c6.142-4.811,4.299-6.347,7.779-12.591
		s6.552-3.479,9.111-1.739c2.559,1.739,4.812,4.504,8.291,0.613c3.48-3.891,4.523-11.874,4.523-11.874v-26.76V98.472V71.711
		c0,0-1.043-7.984-4.523-11.873C845.866,55.949,843.613,58.712,841.054,60.452z"/>
</g>
</svg>
